<svg width="33" height="35" viewBox="0 0 33 35" fill="none" xmlns="http://www.w3.org/2000/svg">
<path fill-rule="evenodd" clip-rule="evenodd" d="M28.6382 3H4.63818C4.0859 3 3.63818 3.44772 3.63818 4V8.12602C3.9578 8.04375 4.29288 8 4.63818 8H28.6382C28.9835 8 29.3186 8.04375 29.6382 8.12602V4C29.6382 3.44772 29.1905 3 28.6382 3ZM3.63818 18V12C3.63818 11.4477 4.0859 11 4.63818 11H28.6382C29.1905 11 29.6382 11.4477 29.6382 12V18C29.6382 18.5523 29.1905 19 28.6382 19H4.63818C4.0859 19 3.63818 18.5523 3.63818 18ZM0.638184 4V12V18C0.638184 20.2091 2.42904 22 4.63818 22H28.6382C30.8473 22 32.6382 20.2091 32.6382 18V12V4C32.6382 1.79086 30.8473 0 28.6382 0H4.63818C2.42904 0 0.638184 1.79086 0.638184 4ZM11.5984 26.8477C10.962 26.3173 10.0162 26.4033 9.48583 27.0397C8.95548 27.6761 9.04147 28.622 9.67788 29.1523L15.6779 34.1523C16.2342 34.6159 17.0422 34.6159 17.5984 34.1523L23.5984 29.1523C24.2348 28.622 24.3208 27.6761 23.7905 27.0397C23.2601 26.4033 22.3143 26.3173 21.6779 26.8477L16.6382 31.0474L11.5984 26.8477Z" fill="black"/>
</svg>
