<svg width="32" height="32" viewBox="0 0 32 32" fill="none" xmlns="http://www.w3.org/2000/svg">
<path fill-rule="evenodd" clip-rule="evenodd" d="M12.6666 14.6667H19.3333V12C19.3333 10.1591 17.8409 8.66667 15.9999 8.66667C14.159 8.66667 12.6666 10.1591 12.6666 12V14.6667ZM21.3333 14.6667C22.0696 14.6667 22.6666 15.2636 22.6666 16V24C22.6666 24.7364 22.0696 25.3333 21.3333 25.3333H10.6666C9.9302 25.3333 9.33325 24.7364 9.33325 24V16C9.33325 15.2636 9.93021 14.6667 10.6666 14.6667V12C10.6666 9.05448 13.0544 6.66667 15.9999 6.66667C18.9454 6.66667 21.3333 9.05449 21.3333 12V14.6667Z" fill="black"/>
</svg>
