<svg width="32" height="32" viewBox="0 0 32 32" fill="none" xmlns="http://www.w3.org/2000/svg">
<path fill-rule="evenodd" clip-rule="evenodd" d="M11.9999 10.6667H19.9999C22.5772 10.6667 24.6666 12.756 24.6666 15.3333V16.6667C24.6666 19.244 22.5772 21.3333 19.9999 21.3333H11.9999C9.42259 21.3333 7.33325 19.244 7.33325 16.6667V15.3333C7.33325 12.756 9.42259 10.6667 11.9999 10.6667ZM5.33325 15.3333C5.33325 11.6514 8.31802 8.66666 11.9999 8.66666H19.9999C23.6818 8.66666 26.6666 11.6514 26.6666 15.3333V16.6667C26.6666 20.3485 23.6818 23.3333 19.9999 23.3333H11.9999C8.31803 23.3333 5.33325 20.3486 5.33325 16.6667V15.3333ZM16.6667 12.6667C14.8257 12.6667 13.3333 14.1591 13.3333 16C13.3333 17.8409 14.8257 19.3333 16.6667 19.3333H18.6667C20.5076 19.3333 22 17.8409 22 16C22 14.1591 20.5076 12.6667 18.6667 12.6667H16.6667Z" fill="black"/>
</svg>
