<svg width="32" height="32" viewBox="0 0 32 32" fill="none" xmlns="http://www.w3.org/2000/svg">
<path fill-rule="evenodd" clip-rule="evenodd" d="M20.7942 8.60396C21.5294 8.56324 22.0925 7.93418 22.0517 7.19892C22.011 6.46367 21.3819 5.90065 20.6467 5.94138C19.3835 6.01135 18.1371 6.53 17.1718 7.49528C15.7759 8.89117 15.3156 10.8683 15.7907 12.6476L7.27234 21.166C6.75164 21.6867 6.75164 22.5309 7.27234 23.0516L9.15796 24.9372C9.67866 25.4579 10.5229 25.4579 11.0436 24.9372L19.562 16.4188C21.3413 16.894 23.3184 16.4336 24.7143 15.0377C25.6796 14.0725 26.1982 12.826 26.2682 11.5629C26.3089 10.8276 25.7459 10.1986 25.0106 10.1578C24.2754 10.1171 23.6463 10.6801 23.6056 11.4154C23.5705 12.0487 23.3122 12.6686 22.8287 13.1521C21.7873 14.1935 20.0988 14.1935 19.0574 13.1521C18.016 12.1107 18.016 10.4223 19.0574 9.38089C19.541 8.89735 20.1608 8.63905 20.7942 8.60396Z" fill="black"/>
</svg>
