<svg width="18" height="27" viewBox="0 0 18 27" fill="none" xmlns="http://www.w3.org/2000/svg">
<mask id="path-1-inside-1" fill="white">
<path fill-rule="evenodd" clip-rule="evenodd" d="M7 18.7777H2C0.895431 18.7777 0 17.8823 0 16.7777V9.22366C0 8.11909 0.895431 7.22366 2 7.22366H7.00008L14.6827 0.498997C15.9758 -0.632854 18 0.28544 18 2.00392V23.9976C18 25.716 15.9758 26.6343 14.6827 25.5025L7 18.7778V18.7777Z"/>
</mask>
<path d="M7 18.7777H9V16.7777H7V18.7777ZM7.00008 7.22366V9.22366H7.75175L8.31735 8.72858L7.00008 7.22366ZM14.6827 0.498997L16 2.00392L14.6827 0.498997ZM14.6827 25.5025L13.3655 27.0074L14.6827 25.5025ZM7 18.7778H5V19.6851L5.68273 20.2827L7 18.7778ZM7 16.7777H2V20.7777H7V16.7777ZM2 16.7777H2H-2C-2 18.9868 -0.209138 20.7777 2 20.7777V16.7777ZM2 16.7777V9.22366H-2V16.7777H2ZM2 9.22366V9.22366V5.22366C-0.209142 5.22366 -2 7.01453 -2 9.22366H2ZM2 9.22366H7.00008V5.22366H2V9.22366ZM8.31735 8.72858L16 2.00392L13.3655 -1.00593L5.68281 5.71873L8.31735 8.72858ZM16 2.00392L16 2.00392H20C20 -1.43305 15.9516 -3.26963 13.3655 -1.00593L16 2.00392ZM16 2.00392V23.9976H20V2.00392H16ZM16 23.9976V23.9976L13.3655 27.0074C15.9516 29.2711 20 27.4345 20 23.9976H16ZM16 23.9976L8.31727 17.2728L5.68273 20.2827L13.3655 27.0074L16 23.9976ZM9 18.7778V18.7777H5V18.7778H9Z" fill="black" fill-opacity="0.4" mask="url(#path-1-inside-1)"/>
</svg>
